<?xml version="1.0" encoding="utf-8"?>
<!-- Generator: Adobe Illustrator 16.0.0, SVG Export Plug-In . SVG Version: 6.00 Build 0)  -->
<!DOCTYPE svg PUBLIC "-//W3C//DTD SVG 1.1//EN" "http://www.w3.org/Graphics/SVG/1.1/DTD/svg11.dtd">
<svg version="1.1" id="Warstwa_1" xmlns="http://www.w3.org/2000/svg" xmlns:xlink="http://www.w3.org/1999/xlink" x="0px" y="0px"
	 width="841.891px" height="595.281px" viewBox="0 0 841.891 595.281" enable-background="new 0 0 841.891 595.281"
	 xml:space="preserve">
<image display="none" overflow="visible" enable-background="new    " width="1921" height="1081" xlink:href="C9933C1B.jpg"  transform="matrix(-0.9994 0 0 0.9994 1374.7849 -242.5259)">
</image>
<path fill="#FFFFFF" d="M532.434,292.649c-3.754-5.166-2.608-12.398,2.559-16.153l102.365-74.372
	c5.168-3.755,12.4-2.609,16.154,2.558l0,0c3.754,5.167,2.607,12.399-2.56,16.154l-102.364,74.372
	C543.422,298.962,536.188,297.817,532.434,292.649L532.434,292.649z"/>
<path fill="#FFFFFF" d="M417.088,292.649c-3.754-5.166-2.607-12.398,2.559-16.153l102.365-74.372
	c5.168-3.755,12.399-2.609,16.154,2.558l0,0c3.754,5.167,2.607,12.399-2.56,16.154l-102.365,74.372
	C428.074,298.962,420.843,297.817,417.088,292.649L417.088,292.649z"/>
<path fill="#FFFFFF" d="M539.167,367.744c3.754-5.166,2.607-12.398-2.56-16.154l-102.364-74.372
	c-5.168-3.755-12.4-2.609-16.154,2.558l0,0c-3.754,5.167-2.609,12.4,2.559,16.154l102.365,74.372
	C528.179,374.056,535.411,372.912,539.167,367.744L539.167,367.744z"/>
<path fill="#FFFFFF" d="M653.922,367.744c3.754-5.166,2.606-12.398-2.561-16.154l-102.363-74.372
	c-5.169-3.755-12.4-2.609-16.154,2.558l0,0c-3.754,5.167-2.609,12.4,2.559,16.154l102.365,74.372
	C642.934,374.056,650.167,372.912,653.922,367.744L653.922,367.744z"/>
</svg>
