<?xml version="1.0" encoding="utf-8"?>
<!-- Generator: Adobe Illustrator 16.0.0, SVG Export Plug-In . SVG Version: 6.00 Build 0)  -->
<!DOCTYPE svg PUBLIC "-//W3C//DTD SVG 1.1//EN" "http://www.w3.org/Graphics/SVG/1.1/DTD/svg11.dtd">
<svg version="1.1" id="Warstwa_1" xmlns="http://www.w3.org/2000/svg" xmlns:xlink="http://www.w3.org/1999/xlink" x="0px" y="0px"
	 width="841.89px" height="595.28px" viewBox="0 0 841.89 595.28" enable-background="new 0 0 841.89 595.28" xml:space="preserve">
<image display="none" overflow="visible" width="1920" height="1080" xlink:href="C9933C1B.jpg"  transform="matrix(1 0 0 1 -545.1221 -242.3604)">
</image>
<path d="M297.322,292.649c-3.754,5.168-10.987,6.313-16.154,2.559l-102.365-74.372c-5.167-3.755-6.313-10.987-2.559-16.154l0,0
	c3.754-5.167,10.986-6.313,16.154-2.558l102.365,74.372C299.93,280.251,301.076,287.483,297.322,292.649L297.322,292.649z"/>
<path d="M412.669,292.649c-3.755,5.168-10.987,6.313-16.154,2.559l-102.365-74.372c-5.167-3.755-6.313-10.987-2.559-16.154l0,0
	c3.754-5.167,10.986-6.313,16.154-2.558l102.365,74.372C415.276,280.251,416.423,287.483,412.669,292.649L412.669,292.649z"/>
<path d="M290.59,367.744c3.755,5.168,10.987,6.313,16.154,2.559l102.365-74.373c5.168-3.754,6.313-10.987,2.559-16.154l0,0
	c-3.754-5.167-10.987-6.313-16.155-2.558L293.149,351.59C287.982,355.346,286.836,362.578,290.59,367.744L290.59,367.744z"/>
<path d="M175.835,367.744c3.755,5.168,10.987,6.313,16.154,2.559l102.365-74.373c5.168-3.754,6.313-10.987,2.559-16.154l0,0
	c-3.754-5.167-10.986-6.313-16.154-2.558L178.395,351.59C173.228,355.346,172.081,362.578,175.835,367.744L175.835,367.744z"/>
</svg>
