<?xml version="1.0" encoding="utf-8"?>
<!-- Generator: Adobe Illustrator 16.0.0, SVG Export Plug-In . SVG Version: 6.00 Build 0)  -->
<!DOCTYPE svg PUBLIC "-//W3C//DTD SVG 1.1//EN" "http://www.w3.org/Graphics/SVG/1.1/DTD/svg11.dtd">
<svg version="1.1" id="Warstwa_1" xmlns="http://www.w3.org/2000/svg" xmlns:xlink="http://www.w3.org/1999/xlink" x="0px" y="0px"
	 width="841.89px" height="595.28px" viewBox="0 0 841.89 595.28" enable-background="new 0 0 841.89 595.28" xml:space="preserve">
<image display="none" overflow="visible" width="3333" height="4490" xlink:href="../../../../../IdeaProjects/MyWebsite1/images/contact.png"  transform="matrix(0.0408 0 0 0.0408 354.4658 171.9731)">
</image>
<path fill="none" stroke="#000000" stroke-miterlimit="10" d="M393.75,171.974"/>
<path fill="#F3F2E4" d="M422.496,141.864c-66.875,0-121.088,54.213-121.088,121.088c0,66.875,54.213,121.089,121.088,121.089
	c66.876,0,121.089-54.214,121.089-121.089C543.585,196.077,489.372,141.864,422.496,141.864z M398.75,171.974
	c0,0,10.75-0.224,14.75,7.526s0,36.5,0,36.5s-8.343,11.77-13.25,8S398.75,171.974,398.75,171.974z M420.945,346.75
	c-21.445-20.5-72.789-63.94-66.48-145c3.035-39,39.285-29.776,39.285-29.776L395.5,225c0,0-13.5,6-8.75,22.25
	s33.242,61.5,35.746,63.5s12.004,4.25,17.754,0s41.5,32.75,41.5,32.75S442.39,367.25,420.945,346.75z M486.75,340l-43.25-34.25
	l12.5-6c0,0,34.527,17.5,34.527,26.5S486.75,340,486.75,340z"/>
</svg>
